<svg id="enigma-icon" xmlns="http://www.w3.org/2000/svg" width="1024" height="1024" viewBox="0 0 1024 1024">
  <g id="icon">
    <circle id="icon_bg" fill="#000812" cx="512" cy="512" r="512"/>
    <path id="icon_colored" fill="#67e8f9" fill-rule="evenodd" d="M790.6,512C790.6,665.314,666.319,789.6,513.009,789.6c-148.458,0-269.694-116.539-277.221-263.125q16.029,57.261,53.832,100.423,44.927,49.938,109.868,70.936,65.742,19.84,138.711,4.518c61.116-12.832,145.092-49.214,242.839-213.216l0.528-.817-22.882-23.246Q641.669,558.908,571.7,573.6q-52.978,11.124-93.128-16.07-40.35-28.138-62.485-83.854L767.05,399.982A276.592,276.592,0,0,1,790.6,512ZM590.871,371.666L399.95,411.754q-10.14-58.233,6.08-90.335c17.979-37.094,95.224-65.507,136.744-29.7Q570.536,314.584,590.871,371.666Z"/>
  </g>
</svg>
