<svg id="splash_icon" xmlns="http://www.w3.org/2000/svg" width="1024" height="1024" viewBox="0 0 1024 1024">
  <path id="splash-icon_icon" data-name="splash-icon_icon" fill="#001224" fill-rule="evenodd" d="M136.648,493.159c2.086,198.932,174.836,359.592,387.631,359.592a412.1,412.1,0,0,0,109.663-14.737L791.966,939.1l0.105-186.542c73.543-66.108,119.859-160.01,119.859-263.045a343.177,343.177,0,0,0-39.8-160.495l-485.3,101.9q30.382,76.469,85.763,115.094,55.108,37.324,127.823,22.056,96.041-20.166,256.647-148.965l42.571,43.07-0.977,1.643C764.5,688.921,638.324,727.172,554.441,744.784q-100.155,21.031-190.387-6.2-89.134-28.819-150.8-97.363Q158.015,578.157,136.648,493.159ZM373.033,221.943q-22.263,44.062-8.345,123.989l262.047-55.023q-27.91-78.348-66.015-109.734C503.731,132.032,397.71,171.03,373.033,221.943Z"/>
</svg>
